<svg width="4800" height="1500" viewBox="0 0 480 150" fill="none" xmlns="http://www.w3.org/2000/svg">
<path fill-rule="evenodd" clip-rule="evenodd" d="M248.578 137.67C249.662 137.67 250.547 137.805 251.233 138.076C251.832 138.313 252.348 138.628 252.778 139.022L252.957 139.195L251.829 140.405C251.342 139.941 250.828 139.618 250.286 139.436C249.745 139.253 249.175 139.162 248.578 139.162C247.903 139.162 247.294 139.286 246.753 139.535C246.212 139.783 245.746 140.118 245.359 140.538C244.972 140.958 244.673 141.452 244.464 142.02C244.254 142.59 244.15 143.194 244.15 143.835C244.15 144.499 244.265 145.115 244.497 145.683C244.729 146.253 245.05 146.747 245.459 147.167C245.869 147.587 246.348 147.915 246.903 148.152C247.456 148.39 248.059 148.509 248.711 148.509C249.274 148.509 249.808 148.456 250.311 148.351C250.731 148.264 251.098 148.144 251.413 147.991L251.596 147.895V144.631H248.992V143.14H253.189V148.923C252.902 149.1 252.576 149.254 252.211 149.387C251.846 149.519 251.467 149.633 251.075 149.727C250.682 149.82 250.283 149.89 249.88 149.934C249.477 149.978 249.098 150 248.745 150C247.749 150 246.862 149.834 246.082 149.503C245.302 149.171 244.643 148.724 244.108 148.16C243.571 147.597 243.161 146.943 242.879 146.197C242.598 145.451 242.457 144.664 242.457 143.835C242.457 142.962 242.609 142.15 242.912 141.399C243.217 140.648 243.636 139.996 244.173 139.444C244.71 138.892 245.355 138.458 246.106 138.143C246.859 137.828 247.682 137.67 248.578 137.67ZM147.969 137.671C148.864 137.671 149.688 137.828 150.44 138.143C151.192 138.457 151.837 138.892 152.373 139.444C152.91 139.997 153.329 140.648 153.634 141.399C153.937 142.15 154.089 142.963 154.089 143.835C154.089 144.708 153.937 145.521 153.634 146.272C153.329 147.023 152.91 147.674 152.373 148.227C151.837 148.779 151.192 149.214 150.44 149.528C149.688 149.843 148.864 150 147.969 150C147.072 150 146.249 149.843 145.496 149.528C144.745 149.214 144.1 148.779 143.564 148.227C143.027 147.674 142.607 147.023 142.303 146.272C141.999 145.521 141.847 144.708 141.847 143.835C141.847 142.963 141.999 142.15 142.303 141.399C142.607 140.648 143.027 139.997 143.564 139.444C144.1 138.892 144.745 138.457 145.496 138.143C146.249 137.828 147.072 137.671 147.969 137.671ZM165.089 137.671C165.984 137.671 166.808 137.828 167.56 138.143C168.312 138.457 168.956 138.892 169.492 139.444C170.03 139.997 170.449 140.648 170.754 141.399C171.057 142.15 171.209 142.963 171.209 143.835C171.209 144.708 171.057 145.521 170.754 146.272C170.449 147.023 170.03 147.674 169.492 148.227C168.956 148.779 168.312 149.214 167.56 149.528C166.808 149.843 165.984 150 165.089 150C164.192 150 163.369 149.843 162.616 149.528C161.865 149.214 161.22 148.779 160.684 148.227C160.147 147.674 159.727 147.023 159.423 146.272C159.119 145.521 158.967 144.708 158.967 143.835C158.967 142.963 159.119 142.15 159.423 141.399C159.727 140.648 160.147 139.997 160.684 139.444C161.22 138.892 161.865 138.457 162.616 138.143C163.369 137.828 164.192 137.671 165.089 137.671ZM299.023 137.671C299.919 137.671 300.743 137.828 301.495 138.143C302.247 138.457 302.891 138.892 303.427 139.444C303.964 139.997 304.384 140.648 304.688 141.399C304.992 142.15 305.144 142.963 305.144 143.835C305.144 144.708 304.992 145.521 304.688 146.272C304.384 147.023 303.964 147.674 303.427 148.227C302.891 148.779 302.247 149.214 301.495 149.528C300.743 149.843 299.919 150 299.023 150C298.127 150 297.304 149.843 296.551 149.528C295.8 149.214 295.154 148.779 294.618 148.227C294.081 147.674 293.662 147.023 293.357 146.272C293.054 145.521 292.902 144.708 292.902 143.835C292.902 142.963 293.054 142.15 293.357 141.399C293.662 140.648 294.081 139.997 294.618 139.444C295.154 138.892 295.8 138.457 296.551 138.143C297.304 137.828 298.127 137.671 299.023 137.671ZM349.916 137.671C350.559 137.671 351.172 137.759 351.759 137.936C352.279 138.093 352.744 138.394 353.151 138.839L353.302 139.013L352.008 140.189C351.808 139.88 351.526 139.631 351.162 139.444C350.796 139.256 350.382 139.162 349.916 139.162C349.475 139.162 349.107 139.22 348.814 139.336C348.521 139.452 348.285 139.601 348.109 139.784C347.932 139.966 347.807 140.162 347.736 140.371C347.664 140.582 347.629 140.776 347.629 140.952C347.629 141.449 347.771 141.83 348.059 142.095C348.346 142.36 348.704 142.576 349.129 142.741C349.555 142.907 350.02 143.056 350.522 143.189C351.026 143.322 351.49 143.507 351.916 143.744C352.341 143.981 352.699 144.302 352.986 144.706C353.273 145.109 353.417 145.664 353.417 146.371C353.417 146.934 353.31 147.443 353.094 147.895C352.878 148.349 352.588 148.731 352.224 149.039C351.858 149.349 351.426 149.586 350.929 149.752C350.432 149.917 349.901 150 349.337 150C348.584 150 347.871 149.868 347.197 149.602C346.596 149.367 346.106 149.018 345.725 148.555L345.588 148.376L346.898 147.249C347.186 147.68 347.553 147.998 348.001 148.202C348.45 148.407 348.911 148.509 349.386 148.509C349.652 148.509 349.922 148.467 350.199 148.385C350.475 148.301 350.728 148.177 350.953 148.011C351.18 147.846 351.366 147.641 351.509 147.398C351.653 147.156 351.725 146.873 351.725 146.553C351.725 146.101 351.582 145.755 351.294 145.518C351.006 145.28 350.65 145.081 350.224 144.921C349.798 144.76 349.334 144.605 348.831 144.457C348.327 144.307 347.863 144.101 347.438 143.835C347.011 143.571 346.655 143.214 346.367 142.767C346.08 142.319 345.936 141.714 345.936 140.952C345.936 140.609 346.01 140.245 346.16 139.858C346.309 139.471 346.544 139.119 346.864 138.798C347.185 138.478 347.597 138.21 348.102 137.994C348.604 137.778 349.21 137.671 349.916 137.671ZM123.468 137.969L126.063 147.349H126.097L128.859 137.969H130.684L133.446 147.349H133.479L136.075 137.969H137.734L134.317 149.702H132.625L129.789 140.123H129.755L126.935 149.702H125.242L121.808 137.969H123.468ZM332.117 137.969L338.586 147.614H338.619V137.969H340.212V149.702H338.189L331.653 140.057H331.62V149.702H330.027V137.969H332.117ZM310.918 137.969L313.513 147.349H313.547L316.309 137.969H318.134L320.895 147.349H320.929L323.525 137.969H325.184L321.767 149.702H320.074L317.238 140.123H317.205L314.385 149.702H312.692L309.258 137.969H310.918ZM180.648 137.969C181.477 137.969 182.204 138.063 182.829 138.251C183.454 138.438 183.996 138.69 184.455 139.005C184.915 139.32 185.296 139.682 185.6 140.09C185.904 140.499 186.144 140.919 186.321 141.349C186.498 141.78 186.625 142.212 186.702 142.642C186.78 143.073 186.818 143.471 186.818 143.836C186.818 144.587 186.681 145.313 186.404 146.015C186.127 146.716 185.718 147.341 185.177 147.887C184.635 148.434 183.963 148.873 183.161 149.205C182.448 149.499 181.637 149.663 180.728 149.696L180.383 149.702H176.551V137.969H180.648ZM196.507 137.969C197.016 137.969 197.489 138.03 197.925 138.151C198.362 138.273 198.738 138.453 199.053 138.69C199.369 138.927 199.617 139.231 199.8 139.601C199.982 139.971 200.073 140.405 200.073 140.902C200.073 141.576 199.885 142.126 199.51 142.551C199.18 142.923 198.767 143.209 198.268 143.408L198.05 143.488V143.521C198.403 143.543 198.735 143.634 199.044 143.794C199.354 143.954 199.623 144.165 199.85 144.423C200.075 144.683 200.256 144.985 200.388 145.327C200.521 145.67 200.588 146.039 200.588 146.438C200.588 146.967 200.48 147.434 200.264 147.838C200.048 148.241 199.753 148.58 199.377 148.857C199 149.134 198.564 149.343 198.066 149.486C197.651 149.607 197.209 149.676 196.741 149.696L196.457 149.702H192.426V137.969H196.507ZM221.24 137.969V149.702H219.648V137.969H221.24ZM231.409 137.969C232.238 137.969 232.965 138.063 233.59 138.251C234.215 138.438 234.757 138.69 235.216 139.005C235.675 139.32 236.056 139.682 236.361 140.09C236.665 140.499 236.904 140.919 237.082 141.349C237.258 141.78 237.385 142.212 237.463 142.642C237.54 143.073 237.579 143.471 237.579 143.836C237.579 144.587 237.441 145.313 237.164 146.015C236.888 146.716 236.479 147.341 235.937 147.887C235.395 148.434 234.724 148.873 233.921 149.205C233.209 149.499 232.398 149.663 231.489 149.696L231.143 149.702H227.311V137.969H231.409ZM266.991 137.969V139.461H261.003V142.957H266.576V144.448H261.003V148.21H267.289V149.702H259.41V137.969H266.991ZM210.325 137.969C211.077 137.969 211.697 138.071 212.182 138.276C212.67 138.48 213.054 138.739 213.336 139.055C213.618 139.369 213.814 139.722 213.924 140.115C214.035 140.507 214.091 140.885 214.091 141.25C214.091 141.626 214.025 141.988 213.891 142.336C213.759 142.683 213.568 142.998 213.319 143.28C213.07 143.562 212.766 143.8 212.406 143.993C212.108 144.154 211.779 144.264 211.422 144.321L211.204 144.349L214.539 149.702H212.548L209.561 144.531H207.788V149.702H206.195V137.969H210.325ZM288.622 137.969V139.46H284.84V149.702H283.247V139.46H279.465V137.969H288.622ZM299.023 139.162C298.348 139.162 297.74 139.287 297.198 139.535C296.657 139.783 296.191 140.117 295.804 140.537C295.417 140.957 295.118 141.452 294.909 142.02C294.699 142.59 294.595 143.195 294.595 143.835C294.595 144.476 294.699 145.081 294.909 145.65C295.118 146.219 295.417 146.714 295.804 147.133C296.191 147.553 296.657 147.887 297.198 148.135C297.74 148.384 298.348 148.509 299.023 148.509C299.698 148.509 300.306 148.384 300.847 148.135C301.389 147.887 301.854 147.553 302.241 147.133C302.629 146.714 302.927 146.219 303.137 145.65C303.347 145.081 303.452 144.476 303.452 143.835C303.452 143.195 303.347 142.59 303.137 142.02C302.927 141.452 302.629 140.957 302.241 140.537C301.854 140.117 301.389 139.783 300.847 139.535C300.306 139.287 299.698 139.162 299.023 139.162ZM165.089 139.162C164.413 139.162 163.805 139.287 163.264 139.535C162.722 139.783 162.257 140.117 161.869 140.537C161.482 140.957 161.184 141.452 160.974 142.02C160.764 142.59 160.66 143.195 160.66 143.835C160.66 144.476 160.764 145.081 160.974 145.65C161.184 146.219 161.482 146.714 161.869 147.133C162.257 147.553 162.722 147.887 163.264 148.135C163.805 148.384 164.413 148.509 165.089 148.509C165.763 148.509 166.371 148.384 166.913 148.135C167.455 147.887 167.919 147.553 168.307 147.133C168.694 146.714 168.993 146.219 169.202 145.65C169.412 145.081 169.517 144.476 169.517 143.835C169.517 143.195 169.412 142.59 169.202 142.02C168.993 141.452 168.694 140.957 168.307 140.537C167.919 140.117 167.455 139.783 166.913 139.535C166.371 139.287 165.763 139.162 165.089 139.162ZM147.969 139.162C147.293 139.162 146.685 139.287 146.144 139.535C145.602 139.783 145.137 140.117 144.749 140.537C144.362 140.957 144.064 141.452 143.854 142.02C143.644 142.59 143.54 143.195 143.54 143.835C143.54 144.476 143.644 145.081 143.854 145.65C144.064 146.219 144.362 146.714 144.749 147.133C145.137 147.553 145.602 147.887 146.144 148.135C146.685 148.384 147.293 148.509 147.969 148.509C148.643 148.509 149.251 148.384 149.793 148.135C150.335 147.887 150.8 147.553 151.187 147.133C151.574 146.714 151.873 146.219 152.082 145.65C152.292 145.081 152.397 144.476 152.397 143.835C152.397 143.195 152.292 142.59 152.082 142.02C151.873 141.452 151.574 140.957 151.187 140.537C150.8 140.117 150.335 139.783 149.793 139.535C149.251 139.287 148.643 139.162 147.969 139.162ZM196.373 144.234H194.019V148.31H196.358C196.601 148.31 196.869 148.285 197.161 148.235C197.455 148.185 197.728 148.086 197.984 147.937C198.238 147.788 198.452 147.587 198.63 147.332C198.807 147.078 198.896 146.741 198.896 146.322C198.896 145.626 198.668 145.103 198.216 144.755C197.762 144.407 197.148 144.234 196.373 144.234ZM231.293 139.46H228.903V148.21H230.911C231.585 148.21 232.225 148.12 232.827 147.937C233.43 147.754 233.958 147.481 234.411 147.117C234.864 146.753 235.224 146.296 235.489 145.75C235.755 145.203 235.888 144.565 235.888 143.836C235.888 143.46 235.826 143.021 235.705 142.518C235.583 142.016 235.354 141.537 235.016 141.085C234.679 140.632 234.213 140.247 233.616 139.932C233.017 139.618 232.243 139.46 231.293 139.46ZM180.532 139.46H178.142V148.21H180.15C180.825 148.21 181.464 148.12 182.066 147.937C182.669 147.754 183.197 147.481 183.65 147.117C184.104 146.753 184.463 146.296 184.729 145.75C184.994 145.203 185.127 144.565 185.127 143.836C185.127 143.46 185.065 143.021 184.944 142.518C184.823 142.016 184.593 141.537 184.256 141.085C183.919 140.632 183.452 140.247 182.855 139.932C182.256 139.618 181.482 139.46 180.532 139.46ZM209.877 139.361H207.788V143.139H209.877C210.187 143.139 210.494 143.115 210.798 143.065C211.102 143.015 211.372 142.924 211.611 142.792C211.848 142.659 212.04 142.469 212.182 142.219C212.327 141.971 212.398 141.648 212.398 141.25C212.398 140.852 212.327 140.529 212.182 140.28C212.04 140.032 211.848 139.842 211.611 139.709C211.372 139.576 211.102 139.485 210.798 139.435C210.494 139.386 210.187 139.361 209.877 139.361ZM196.523 139.361H194.019V142.841H196.192C196.49 142.841 196.772 142.811 197.038 142.75C197.303 142.689 197.534 142.587 197.735 142.443C197.933 142.3 198.091 142.117 198.208 141.897C198.323 141.676 198.381 141.405 198.381 141.085C198.381 140.62 198.231 140.217 197.933 139.874C197.635 139.532 197.165 139.361 196.523 139.361ZM160.249 0C177.719 0 188.949 5.50976 199.104 15.0952L199.457 15.4312L195.744 18.9919C186.833 8.75461 176.438 2.07696 160.249 2.07696C130.842 2.07696 115.099 26.2617 115.099 53.1178C115.099 79.9717 130.842 104.156 160.249 104.156C173.872 104.156 186.483 99.1048 197.086 88.8591L197.527 88.4292L199.161 90.0614C188.171 101.337 174.062 106.233 160.249 106.233C130.842 106.233 107.377 82.4944 107.377 53.1178C107.377 23.739 130.842 0 160.249 0ZM426.83 0.000312112C456.385 0.000312112 480 23.5908 480 53.117C480 82.6423 456.385 106.234 426.83 106.234C397.276 106.234 373.661 82.6423 373.661 53.117C373.661 23.5908 397.276 0.000312112 426.83 0.000312112ZM69.5054 1.18716C86.7336 1.18716 97.1298 12.612 97.1298 31.4542C97.1298 46.2921 89.704 56.5294 78.8616 60.2386C90.3233 62.5875 95.8234 71.3262 95.9392 82.2882L95.941 82.6425V98.0727C95.941 102.079 96.5349 104.008 98.4663 106.085C92.6246 106.085 88.937 103.073 88.8157 98.4573L88.8126 98.2213V81.6046C88.8126 72.2041 85.9014 61.93 71.144 61.7254L70.6932 61.7223H65.1986V105.046H58.0692V7.56764C58.0692 5.28849 57.9321 3.96689 56.7387 1.50145L56.584 1.18716H69.5054ZM22.8725 1.18757C25.3302 1.18757 27.5079 3.15665 28.0317 5.58901L28.0706 5.78721L45.2988 98.5178C45.5838 100.23 45.8697 102.354 47.4761 104.757L47.6753 105.047H37.4267C38.4234 102.629 38.465 100.894 38.074 98.7939L38.0206 98.5178L35.6451 85.6103H5.64428L2.22879 105.047H0L16.9318 10.0897C17.6525 5.91376 17.5336 4.11331 16.3041 1.43368L16.1892 1.18757H22.8725ZM275.05 1.18799V3.26391H249.209V46.7377H275.05V48.8146H249.209V102.969H271.486C273.59 102.969 275.429 102.44 277.129 101.381L277.428 101.188L278.615 102.821C276.623 104.385 274.767 104.996 272.393 105.044L272.08 105.047H242.079V7.56743C242.079 5.28829 241.943 3.96668 240.749 1.50215L240.594 1.18799H275.05ZM224.261 1.18747V98.6673C224.261 100.945 224.398 102.268 225.59 104.733L225.745 105.047H217.132V61.7226H169.903V82.7914H162.774V23.4428H169.903V59.6457H217.132V1.18747H224.261ZM324.655 1.18716V3.26412H307.427V98.667C307.427 100.946 307.564 102.268 308.756 104.732L308.911 105.046H298.813C300.096 102.483 300.284 101.15 300.297 98.9471L300.298 98.667V3.26412H283.07V1.18716H324.655ZM369.207 1.18716V3.26412H351.979V98.667C351.979 100.946 352.116 102.268 353.31 104.732L353.464 105.046H343.366C344.649 102.483 344.836 101.15 344.849 98.9471L344.85 98.667V3.26412H327.623V1.18716H369.207ZM426.83 2.07727C397.276 2.07727 381.384 27.8943 381.384 53.117C381.384 78.3408 397.276 104.157 426.83 104.157C456.385 104.157 472.278 78.3408 472.278 53.117C472.278 27.8943 456.385 2.07727 426.83 2.07727ZM20.3473 3.8578C20.2198 3.8578 20.2016 3.96696 20.199 3.99815L20.1985 4.00637L6.08941 83.5334H35.2L20.496 4.00637C20.496 4.00637 20.496 3.8578 20.3473 3.8578ZM67.7228 3.26412H65.1986V59.6454H67.7228C82.5745 59.6454 89.4065 48.5177 89.4065 31.4542C89.4065 14.3918 84.0597 3.26412 67.7228 3.26412Z" fill="#231F20"/>
</svg>
