<svg width="4600" height="2270" viewBox="0 0 460 227" fill="none" xmlns="http://www.w3.org/2000/svg">
<path d="M22.9986 48.8475V65.949C22.9986 68.57 23.2607 70.5029 23.7849 71.7478C24.3746 72.9273 25.3575 73.7135 26.7334 74.1067C28.1749 74.4998 30.4355 74.7291 33.5151 74.7947V76.9569C25.4557 76.7604 19.4604 76.6621 15.529 76.6621C12.2528 76.6621 8.12487 76.7276 3.14511 76.8586L0 76.9569V74.9912C2.16226 74.8602 3.73482 74.5981 4.71767 74.2049C5.76604 73.8118 6.45403 73.0583 6.78164 71.9444C7.17478 70.8305 7.37135 69.0286 7.37135 66.5387V17.7895C7.37135 15.2997 7.17478 13.4978 6.78164 12.3839C6.45403 11.27 5.76604 10.5165 4.71767 10.1233C3.73482 9.73019 2.16226 9.46809 0 9.33705V7.37136C3.34168 7.56792 8.32144 7.66621 14.9393 7.66621L25.8489 7.56792C27.1593 7.5024 28.6664 7.46964 30.37 7.46964C39.2156 7.46964 45.9645 9.23876 50.6166 12.777C55.2688 16.2497 57.5948 20.9346 57.5948 26.8317C57.5948 30.4355 56.6775 33.9082 54.8429 37.2499C53.0082 40.5261 49.8959 43.278 45.5058 45.5058C41.1813 47.7336 35.4153 48.8475 28.2077 48.8475H22.9986ZM29.0923 9.33705C27.3231 9.33705 26.0127 9.56638 25.1609 10.025C24.3746 10.4837 23.8177 11.3027 23.49 12.4822C23.1624 13.6616 22.9986 15.4307 22.9986 17.7895V46.8818H27.2249C32.5322 46.8818 36.2015 45.1782 38.2327 41.771C40.264 38.3638 41.2796 33.7444 41.2796 27.9129C41.2796 21.5571 40.3295 16.8722 38.4293 13.8581C36.5947 10.8441 33.4823 9.33705 29.0923 9.33705Z" fill="white"/>
<path d="M85.8025 24.7677C93.3377 24.7677 99.2348 26.93 103.494 31.2545C107.753 35.5135 109.882 42.2952 109.882 51.5995C109.882 60.9038 107.753 67.6854 103.494 71.9444C99.2348 76.2034 93.3377 78.3329 85.8025 78.3329C78.3329 78.3329 72.4358 76.2034 68.1113 71.9444C63.8523 67.6854 61.7228 60.9038 61.7228 51.5995C61.7228 42.2952 63.8523 35.5135 68.1113 31.2545C72.4358 26.93 78.3329 24.7677 85.8025 24.7677ZM85.8025 26.7334C82.985 26.7334 80.7245 28.7974 79.0209 32.9254C77.3828 36.9878 76.5638 43.2125 76.5638 51.5995C76.5638 59.9864 77.3828 66.2111 79.0209 70.2736C80.7245 74.336 82.985 76.3672 85.8025 76.3672C88.6856 76.3672 90.9461 74.3688 92.5842 70.3718C94.2223 66.3094 95.0413 60.052 95.0413 51.5995C95.0413 43.147 94.1895 36.8895 92.4859 32.8271C90.8478 28.7647 88.62 26.7334 85.8025 26.7334Z" fill="white"/>
<path d="M135.108 67.8165C135.108 70.5029 135.567 72.3703 136.484 73.4187C137.402 74.4015 139.04 74.8929 141.399 74.8929V76.9569C134.584 76.6948 130.194 76.5638 128.229 76.5638C126.001 76.5638 121.48 76.6948 114.665 76.9569V74.8929C116.959 74.8929 118.564 74.4015 119.481 73.4187C120.464 72.3703 120.955 70.5029 120.955 67.8165V11.7942C120.955 8.7801 120.464 6.58508 119.481 5.20909C118.564 3.8331 116.959 3.14511 114.665 3.14511V1.08114C116.762 1.2777 118.793 1.37599 120.759 1.37599C126.459 1.37599 131.243 0.917324 135.108 0V67.8165Z" fill="white"/>
<path d="M158.357 0.786279C161.109 0.786279 163.272 1.47427 164.844 2.85026C166.482 4.16072 167.301 5.99537 167.301 8.3542C167.301 10.713 166.482 12.5804 164.844 13.9564C163.272 15.2669 161.109 15.9221 158.357 15.9221C155.605 15.9221 153.41 15.2669 151.772 13.9564C150.2 12.5804 149.413 10.713 149.413 8.3542C149.413 5.99537 150.2 4.16072 151.772 2.85026C153.41 1.47427 155.605 0.786279 158.357 0.786279ZM166.024 67.8165C166.024 70.5029 166.482 72.3703 167.4 73.4187C168.382 74.4015 170.02 74.8929 172.314 74.8929V76.9569C165.761 76.6948 161.404 76.5638 159.242 76.5638C157.211 76.5638 152.657 76.6948 145.58 76.9569V74.8929C147.939 74.8929 149.577 74.4015 150.495 73.4187C151.412 72.3703 151.871 70.5029 151.871 67.8165V36.8568C151.871 33.8427 151.412 31.6477 150.495 30.2717C149.577 28.8957 147.939 28.2077 145.58 28.2077V26.1437C147.677 26.3403 149.708 26.4386 151.674 26.4386C157.506 26.4386 162.289 25.9799 166.024 25.0626V67.8165Z" fill="white"/>
<path d="M196.534 26.1437H208.132V28.1094H196.534V67.8165C196.534 69.7821 196.862 71.1909 197.517 72.0427C198.238 72.829 199.352 73.2221 200.859 73.2221C203.676 73.2221 205.904 71.2564 207.542 67.325L209.213 68.2096C206.723 74.9585 202.235 78.3329 195.748 78.3329C191.423 78.3329 188.147 77.219 185.919 74.9912C184.543 73.6152 183.593 71.9116 183.069 69.8804C182.61 67.7837 182.381 64.9334 182.381 61.3297V28.1094H174.125V26.1437H182.381V13.1701C187.819 13.1701 192.537 12.1218 196.534 10.025V26.1437Z" fill="white"/>
<path d="M223.912 0.786279C226.664 0.786279 228.827 1.47427 230.399 2.85026C232.037 4.16072 232.856 5.99537 232.856 8.3542C232.856 10.713 232.037 12.5804 230.399 13.9564C228.827 15.2669 226.664 15.9221 223.912 15.9221C221.161 15.9221 218.965 15.2669 217.327 13.9564C215.755 12.5804 214.969 10.713 214.969 8.3542C214.969 5.99537 215.755 4.16072 217.327 2.85026C218.965 1.47427 221.161 0.786279 223.912 0.786279ZM231.579 67.8165C231.579 70.5029 232.037 72.3703 232.955 73.4187C233.938 74.4015 235.576 74.8929 237.869 74.8929V76.9569C231.317 76.6948 226.959 76.5638 224.797 76.5638C222.766 76.5638 218.212 76.6948 211.135 76.9569V74.8929C213.494 74.8929 215.132 74.4015 216.05 73.4187C216.967 72.3703 217.426 70.5029 217.426 67.8165V36.8568C217.426 33.8427 216.967 31.6477 216.05 30.2717C215.132 28.8957 213.494 28.2077 211.135 28.2077V26.1437C213.232 26.3403 215.263 26.4386 217.229 26.4386C223.061 26.4386 227.844 25.9799 231.579 25.0626V67.8165Z" fill="white"/>
<path d="M267.691 24.7677C270.116 24.7677 272.409 25.0298 274.571 25.554C276.734 26.0782 278.535 26.799 279.977 27.7163C281.681 28.7647 282.991 30.1079 283.908 31.746C284.891 33.3185 285.383 35.0549 285.383 36.9551C285.383 39.2484 284.662 41.1485 283.22 42.6556C281.779 44.0971 279.911 44.8178 277.618 44.8178C275.325 44.8178 273.49 44.1626 272.114 42.8521C270.738 41.5417 270.05 39.7725 270.05 37.5448C270.05 35.5791 270.673 33.8755 271.918 32.434C273.163 30.9924 274.702 30.0096 276.537 29.4854C276.013 28.7647 275.194 28.2077 274.08 27.8146C273.032 27.3559 271.885 27.1266 270.64 27.1266C266.709 27.1266 263.629 29.2888 261.401 33.6134C259.239 37.8724 258.158 43.4746 258.158 50.4201C258.158 57.431 259.403 62.4763 261.893 65.5559C264.383 68.6355 267.495 70.1753 271.23 70.1753C273.457 70.1753 275.685 69.5856 277.913 68.4062C280.206 67.2267 282.27 65.1628 284.105 62.2142L285.776 62.8039C284.465 67.0629 282.172 70.7322 278.896 73.8118C275.62 76.8259 271.393 78.3329 266.217 78.3329C259.468 78.3329 253.964 76.1051 249.705 71.6496C245.446 67.194 243.317 60.5761 243.317 51.796C243.317 46.03 244.365 41.1158 246.462 37.0533C248.559 32.9909 251.442 29.9441 255.111 27.9129C258.78 25.8161 262.974 24.7677 267.691 24.7677Z" fill="white"/>
<path d="M303.869 77.6449C299.676 77.6449 296.531 76.5638 294.434 74.4015C292.403 72.2393 291.387 69.389 291.387 65.8507C291.387 62.9022 292.141 60.4779 293.648 58.5777C295.22 56.612 297.088 55.105 299.25 54.0566C301.478 53.0082 304.295 51.8943 307.703 50.7149C311.306 49.47 313.927 48.3561 315.565 47.3732C317.269 46.3249 318.121 44.9161 318.121 43.147V35.4808C318.121 32.7288 317.465 30.5993 316.155 29.0923C314.91 27.5197 312.944 26.7334 310.258 26.7334C307.113 26.7334 304.721 27.5197 303.083 29.0923C304.918 29.7475 306.327 30.7304 307.309 32.0408C308.358 33.3513 308.882 34.8911 308.882 36.6602C308.882 38.888 308.128 40.6571 306.621 41.9676C305.114 43.278 303.28 43.9333 301.117 43.9333C298.824 43.9333 297.055 43.2125 295.81 41.771C294.565 40.3295 293.943 38.5276 293.943 36.3653C293.943 34.5307 294.369 32.9909 295.22 31.746C296.138 30.4355 297.514 29.2233 299.348 28.1094C301.117 27.0611 303.28 26.242 305.835 25.6523C308.456 25.0626 311.306 24.7677 314.386 24.7677C317.596 24.7677 320.381 25.0954 322.74 25.7506C325.099 26.4058 327.065 27.5197 328.637 29.0923C330.079 30.5338 331.029 32.3029 331.487 34.3996C332.012 36.4964 332.274 39.3466 332.274 42.9504V69.6839C332.274 71.2564 332.405 72.3703 332.667 73.0255C332.994 73.6808 333.584 74.0084 334.436 74.0084C335.419 74.0084 336.598 73.4514 337.974 72.3375L338.957 74.0084C336.008 76.4327 332.405 77.6449 328.146 77.6449C324.542 77.6449 322.019 76.9242 320.578 75.4827C319.136 74.0411 318.383 72.1082 318.317 69.6839C315.041 74.9912 310.225 77.6449 303.869 77.6449ZM311.437 71.3547C313.993 71.3547 316.221 70.0115 318.121 67.325V47.1767C317.334 48.4871 315.664 49.9286 313.108 51.5012C310.553 53.1393 308.62 54.7773 307.309 56.4154C305.999 58.0535 305.344 60.4123 305.344 63.4919C305.344 66.1784 305.901 68.1768 307.014 69.4873C308.128 70.7322 309.603 71.3547 311.437 71.3547Z" fill="white"/>
<path d="M361.816 67.8165C361.816 70.5029 362.275 72.3703 363.192 73.4187C364.109 74.4015 365.747 74.8929 368.106 74.8929V76.9569C361.292 76.6948 356.902 76.5638 354.936 76.5638C352.708 76.5638 348.187 76.6948 341.373 76.9569V74.8929C343.666 74.8929 345.271 74.4015 346.189 73.4187C347.171 72.3703 347.663 70.5029 347.663 67.8165V11.7942C347.663 8.7801 347.171 6.58508 346.189 5.20909C345.271 3.8331 343.666 3.14511 341.373 3.14511V1.08114C343.469 1.2777 345.501 1.37599 347.466 1.37599C353.167 1.37599 357.95 0.917324 361.816 0V67.8165Z" fill="white"/>
<path d="M35.6773 137.042C39.6087 137.042 42.9504 137.599 45.7024 138.712C48.4544 139.826 51.1408 141.399 53.7617 143.43C54.4825 144.02 55.105 144.315 55.6291 144.315C56.9396 144.315 57.7914 142.349 58.1845 138.418H60.4451C60.183 142.873 60.052 150.801 60.052 162.203H57.7914C57.2017 157.354 56.4154 153.652 55.4326 151.096C54.4497 148.541 52.7789 146.313 50.42 144.413C48.782 142.84 46.8818 141.661 44.7195 140.875C42.5573 140.023 40.2967 139.597 37.9379 139.597C31.3201 139.597 26.4058 142.84 23.1952 149.327C19.9846 155.748 18.3792 163.775 18.3792 173.407C18.3792 182.973 20.0501 190.967 23.3918 197.388C26.7334 203.81 31.7132 207.02 38.331 207.02C40.5588 207.02 42.7538 206.627 44.9161 205.841C47.1439 204.989 49.0113 203.777 50.5183 202.204C52.9427 200.37 54.6135 198.076 55.5308 195.324C56.5137 192.572 57.2672 188.543 57.7914 183.235H60.052C60.052 195.095 60.183 203.351 60.4451 208.003H58.1845C57.988 205.906 57.6931 204.432 57.3 203.58C56.9724 202.663 56.4809 202.204 55.8257 202.204C55.3015 202.204 54.6135 202.466 53.7617 202.991C50.8132 205.087 47.9957 206.693 45.3092 207.807C42.6228 208.855 39.3794 209.379 35.5791 209.379C28.6336 209.379 22.54 207.97 17.2981 205.153C12.1218 202.335 8.09211 198.273 5.20909 192.966C2.32607 187.593 0.884562 181.204 0.884562 173.8C0.884562 166.593 2.35883 160.204 5.30737 154.635C8.25591 149.065 12.3511 144.741 17.593 141.661C22.9003 138.581 28.9285 137.042 35.6773 137.042Z" fill="white"/>
<path d="M81.2891 208.691C77.0956 208.691 73.9505 207.61 71.8538 205.448C69.8226 203.286 68.807 200.435 68.807 196.897C68.807 193.948 69.5605 191.524 71.0675 189.624C72.6401 187.658 74.5075 186.151 76.6697 185.103C78.8975 184.054 81.715 182.941 85.1222 181.761C88.726 180.516 91.3469 179.402 92.985 178.419C94.6886 177.371 95.5404 175.962 95.5404 174.193V166.527C95.5404 163.775 94.8852 161.646 93.5747 160.139C92.3298 158.566 90.3641 157.78 87.6776 157.78C84.5325 157.78 82.1409 158.566 80.5028 160.139C82.3375 160.794 83.7462 161.777 84.7291 163.087C85.7775 164.398 86.3016 165.937 86.3016 167.706C86.3016 169.934 85.5481 171.703 84.0411 173.014C82.5341 174.324 80.6994 174.98 78.5371 174.98C76.2438 174.98 74.4747 174.259 73.2298 172.817C71.9848 171.376 71.3624 169.574 71.3624 167.412C71.3624 165.577 71.7883 164.037 72.6401 162.792C73.5574 161.482 74.9334 160.27 76.768 159.156C78.5371 158.107 80.6994 157.288 83.2548 156.699C85.8757 156.109 88.726 155.814 91.8056 155.814C95.0162 155.814 97.8009 156.142 100.16 156.797C102.519 157.452 104.484 158.566 106.057 160.139C107.498 161.58 108.448 163.349 108.907 165.446C109.431 167.543 109.693 170.393 109.693 173.997V200.73C109.693 202.303 109.824 203.417 110.087 204.072C110.414 204.727 111.004 205.055 111.856 205.055C112.839 205.055 114.018 204.498 115.394 203.384L116.377 205.055C113.428 207.479 109.824 208.691 105.565 208.691C101.962 208.691 99.439 207.97 97.9975 206.529C96.556 205.087 95.8025 203.154 95.737 200.73C92.4608 206.037 87.6449 208.691 81.2891 208.691ZM88.857 202.401C91.4124 202.401 93.6402 201.058 95.5404 198.371V178.223C94.7541 179.533 93.0833 180.975 90.5279 182.547C87.9725 184.186 86.0395 185.824 84.7291 187.462C83.4186 189.1 82.7634 191.459 82.7634 194.538C82.7634 197.225 83.3203 199.223 84.4342 200.534C85.5481 201.778 87.0224 202.401 88.857 202.401Z" fill="white"/>
<path d="M198.206 198.863C198.206 201.549 198.665 203.417 199.582 204.465C200.565 205.448 202.203 205.939 204.497 205.939V208.003C197.944 207.741 193.62 207.61 191.523 207.61C189.688 207.61 185.626 207.741 179.336 208.003V205.939C181.105 205.939 182.317 205.448 182.972 204.465C183.693 203.482 184.053 201.615 184.053 198.863V168.296C184.053 165.544 183.628 163.513 182.776 162.203C181.989 160.827 180.45 160.139 178.156 160.139C175.732 160.139 173.603 161.154 171.768 163.185C169.999 165.217 168.95 167.706 168.623 170.655V198.863C168.623 201.549 169.016 203.417 169.802 204.465C170.654 205.448 172.161 205.939 174.323 205.939V208.003C168.033 207.741 163.905 207.61 161.939 207.61C160.105 207.61 156.042 207.741 149.752 208.003V205.939C151.521 205.939 152.733 205.448 153.389 204.465C154.109 203.417 154.47 201.549 154.47 198.863V168.296C154.47 165.544 154.109 163.513 153.389 162.203C152.668 160.827 151.259 160.139 149.162 160.139C146.541 160.139 144.281 161.252 142.381 163.48C140.546 165.642 139.629 168.329 139.629 171.54V198.863C139.629 201.549 139.956 203.417 140.612 204.465C141.332 205.448 142.577 205.939 144.346 205.939V208.003C138.58 207.741 134.715 207.61 132.749 207.61C130.783 207.61 126.262 207.741 119.186 208.003V205.939C121.544 205.939 123.182 205.448 124.1 204.465C125.017 203.417 125.476 201.549 125.476 198.863V167.903C125.476 164.889 125.017 162.694 124.1 161.318C123.182 159.942 121.544 159.254 119.186 159.254V157.19C121.282 157.387 123.313 157.485 125.279 157.485C131.111 157.485 135.894 157.026 139.629 156.109V164.954C142.512 158.861 147.59 155.814 154.863 155.814C159.843 155.814 163.446 157.092 165.674 159.647C166.919 160.958 167.738 162.923 168.131 165.544C169.835 162.006 172.063 159.516 174.815 158.075C177.567 156.568 180.777 155.814 184.447 155.814C189.426 155.814 193.03 157.092 195.258 159.647C196.306 160.827 197.06 162.432 197.518 164.463C197.977 166.494 198.206 169.148 198.206 172.424V198.863Z" fill="white"/>
<path d="M243.444 155.814C246.851 155.814 249.866 156.731 252.486 158.566C255.173 160.401 257.27 163.153 258.777 166.822C260.284 170.491 261.037 174.98 261.037 180.287C261.037 189.657 258.973 196.864 254.845 201.91C250.783 206.889 245.246 209.379 238.235 209.379C236.269 209.379 234.402 209.117 232.633 208.593C230.929 208.069 229.455 207.282 228.21 206.234V216.063C228.21 218.946 228.931 220.944 230.372 222.058C231.814 223.172 234.042 223.729 237.056 223.729V225.793L234.402 225.694C227.129 225.498 222.51 225.4 220.544 225.4C218.578 225.4 214.45 225.531 208.16 225.793V223.729C210.322 223.729 211.829 223.237 212.681 222.254C213.598 221.337 214.057 219.601 214.057 217.045V167.903C214.057 164.889 213.566 162.694 212.583 161.318C211.666 159.942 210.06 159.254 207.767 159.254V157.19C209.864 157.387 211.895 157.485 213.861 157.485C219.561 157.485 224.344 157.026 228.21 156.109V165.151C229.586 162.137 231.585 159.844 234.206 158.271C236.826 156.633 239.906 155.814 243.444 155.814ZM234.402 206.725C238.596 206.725 241.61 204.661 243.444 200.534C245.279 196.34 246.196 190.246 246.196 182.253C246.196 174.259 245.443 168.558 243.936 165.151C242.494 161.744 240.397 160.04 237.645 160.04C235.418 160.04 233.419 160.794 231.65 162.301C229.947 163.808 228.8 165.905 228.21 168.591V204.072C229.783 205.841 231.847 206.725 234.402 206.725Z" fill="white"/>
<path d="M280.066 208.691C275.873 208.691 272.727 207.61 270.631 205.448C268.6 203.286 267.584 200.435 267.584 196.897C267.584 193.948 268.337 191.524 269.844 189.624C271.417 187.658 273.284 186.151 275.447 185.103C277.674 184.054 280.492 182.941 283.899 181.761C287.503 180.516 290.124 179.402 291.762 178.419C293.466 177.371 294.317 175.962 294.317 174.193V166.527C294.317 163.775 293.662 161.646 292.352 160.139C291.107 158.566 289.141 157.78 286.455 157.78C283.309 157.78 280.918 158.566 279.28 160.139C281.114 160.794 282.523 161.777 283.506 163.087C284.554 164.398 285.079 165.937 285.079 167.706C285.079 169.934 284.325 171.703 282.818 173.014C281.311 174.324 279.476 174.98 277.314 174.98C275.021 174.98 273.252 174.259 272.007 172.817C270.762 171.376 270.139 169.574 270.139 167.412C270.139 165.577 270.565 164.037 271.417 162.792C272.334 161.482 273.71 160.27 275.545 159.156C277.314 158.107 279.476 157.288 282.032 156.699C284.653 156.109 287.503 155.814 290.583 155.814C293.793 155.814 296.578 156.142 298.937 156.797C301.296 157.452 303.261 158.566 304.834 160.139C306.275 161.58 307.225 163.349 307.684 165.446C308.208 167.543 308.47 170.393 308.47 173.997V200.73C308.47 202.303 308.601 203.417 308.863 204.072C309.191 204.727 309.781 205.055 310.633 205.055C311.615 205.055 312.795 204.498 314.171 203.384L315.154 205.055C312.205 207.479 308.601 208.691 304.342 208.691C300.739 208.691 298.216 207.97 296.774 206.529C295.333 205.087 294.579 203.154 294.514 200.73C291.238 206.037 286.422 208.691 280.066 208.691ZM287.634 202.401C290.189 202.401 292.417 201.058 294.317 198.371V178.223C293.531 179.533 291.86 180.975 289.305 182.547C286.749 184.186 284.816 185.824 283.506 187.462C282.196 189.1 281.54 191.459 281.54 194.538C281.54 197.225 282.097 199.223 283.211 200.534C284.325 201.778 285.799 202.401 287.634 202.401Z" fill="white"/>
<path d="M330.74 131.833C333.491 131.833 335.654 132.521 337.226 133.897C338.864 135.207 339.683 137.042 339.683 139.4C339.683 141.759 338.864 143.627 337.226 145.003C335.654 146.313 333.491 146.968 330.74 146.968C327.988 146.968 325.793 146.313 324.154 145.003C322.582 143.627 321.796 141.759 321.796 139.4C321.796 137.042 322.582 135.207 324.154 133.897C325.793 132.521 327.988 131.833 330.74 131.833ZM338.406 198.863C338.406 201.549 338.864 203.417 339.782 204.465C340.765 205.448 342.403 205.939 344.696 205.939V208.003C338.144 207.741 333.786 207.61 331.624 207.61C329.593 207.61 325.039 207.741 317.962 208.003V205.939C320.321 205.939 321.959 205.448 322.877 204.465C323.794 203.417 324.253 201.549 324.253 198.863V167.903C324.253 164.889 323.794 162.694 322.877 161.318C321.959 159.942 320.321 159.254 317.962 159.254V157.19C320.059 157.387 322.09 157.485 324.056 157.485C329.888 157.485 334.671 157.026 338.406 156.109V198.863Z" fill="white"/>
<path d="M395.551 166.625C394.241 166.625 393.127 166.199 392.21 165.348C391.292 164.43 390.834 163.153 390.834 161.515C390.834 159.942 391.227 158.337 392.013 156.699C390.441 157.354 389.13 158.107 388.082 158.959C387.099 159.745 386.247 160.761 385.526 162.006C387.558 164.43 388.573 167.575 388.573 171.441C388.573 176.618 386.771 180.516 383.167 183.137C379.629 185.758 374.912 187.069 369.014 187.069H367.245C364.559 188.641 363.216 190.377 363.216 192.278C363.216 194.374 364.526 195.423 367.147 195.423H377.86C383.626 195.423 388.213 196.504 391.62 198.666C395.093 200.763 396.829 204.006 396.829 208.396C396.829 211.738 395.748 214.752 393.586 217.439C391.489 220.19 388.278 222.386 383.954 224.024C379.629 225.662 374.322 226.481 368.032 226.481C361.676 226.481 356.565 225.662 352.699 224.024C348.899 222.451 346.999 220.158 346.999 217.144C346.999 215.112 347.916 213.278 349.751 211.64C351.585 210.067 354.305 208.822 357.908 207.905L358.793 209.477C356.434 211.443 355.255 213.704 355.255 216.259C355.255 219.011 356.5 221.108 358.989 222.549C361.479 224.056 364.919 224.81 369.309 224.81C373.896 224.81 377.598 223.893 380.415 222.058C383.299 220.223 384.74 217.635 384.74 214.293C384.74 212.131 383.921 210.428 382.283 209.183C380.71 207.938 377.926 207.315 373.929 207.315H367.835C363.642 207.315 360.365 206.627 358.007 205.251C355.648 203.81 354.468 201.647 354.468 198.764C354.468 196.34 355.32 194.178 357.024 192.278C358.727 190.377 361.316 188.543 364.788 186.774C360.071 186.184 356.336 184.611 353.584 182.056C350.832 179.501 349.456 175.962 349.456 171.441C349.456 166.265 351.225 162.366 354.763 159.745C358.367 157.124 363.117 155.814 369.014 155.814C375.567 155.814 380.579 157.354 384.052 160.433C385.297 158.664 386.837 157.256 388.671 156.207C390.506 155.159 392.373 154.635 394.274 154.635C396.239 154.635 397.779 155.224 398.893 156.404C400.072 157.518 400.662 158.992 400.662 160.827C400.662 162.661 400.138 164.103 399.09 165.151C398.107 166.134 396.927 166.625 395.551 166.625ZM369.014 185.299C370.849 185.299 372.225 184.251 373.142 182.154C374.125 180.058 374.617 176.487 374.617 171.441C374.617 166.396 374.125 162.825 373.142 160.728C372.225 158.632 370.849 157.583 369.014 157.583C367.18 157.583 365.771 158.632 364.788 160.728C363.871 162.825 363.412 166.396 363.412 171.441C363.412 176.487 363.871 180.058 364.788 182.154C365.771 184.251 367.18 185.299 369.014 185.299Z" fill="white"/>
<path d="M439.852 155.814C444.831 155.814 448.435 157.092 450.663 159.647C451.777 160.892 452.563 162.497 453.022 164.463C453.48 166.429 453.71 169.082 453.71 172.424V198.863C453.71 201.549 454.168 203.417 455.086 204.465C456.069 205.448 457.707 205.939 460 205.939V208.003C453.448 207.741 449.123 207.61 447.026 207.61C445.061 207.61 440.802 207.741 434.249 208.003V205.939C436.215 205.939 437.591 205.448 438.377 204.465C439.164 203.417 439.557 201.549 439.557 198.863V168.296C439.557 165.61 439.098 163.579 438.181 162.203C437.329 160.827 435.756 160.139 433.463 160.139C430.777 160.139 428.483 161.252 426.583 163.48C424.683 165.642 423.733 168.329 423.733 171.54V198.863C423.733 201.549 424.126 203.417 424.912 204.465C425.699 205.448 427.075 205.939 429.04 205.939V208.003C423.012 207.741 418.95 207.61 416.853 207.61C414.887 207.61 410.366 207.741 403.29 208.003V205.939C405.649 205.939 407.287 205.448 408.204 204.465C409.121 203.417 409.58 201.549 409.58 198.863V167.903C409.58 164.889 409.121 162.694 408.204 161.318C407.287 159.942 405.649 159.254 403.29 159.254V157.19C405.386 157.387 407.418 157.485 409.383 157.485C415.215 157.485 419.998 157.026 423.733 156.109V164.954C426.681 158.861 432.054 155.814 439.852 155.814Z" fill="white"/>
</svg>
